# xmcd CD database file
#
# Track frame offsets:
#	150
#	15543
#	34752
#	51830
#	65044
#	79390
#	96298
#	113441
#	127544
#	147448
#	166132
#	183657
#	203235
#	222940
#	235686
#	250293
#	267271
#	283021
#	295937
#	308579
#
# Disc length: 4329 seconds
#
# Revision: 1
# Processed by: cddbd v1.5.2PL0 Copyright (c) Steve Scherf et al.
# Submitted via: CDex 1.51
#
DISCID=2010e714
DTITLE=Country Singels - Sampler
DYEAR=2006
DGENRE=Country
TTITLE0=Brendon Wamsley - Who'd Have Thought It
TTITLE1=Jeanette Wormald - If This Isn't Country
TTITLE2=Tom Maxwell - Sometimes
TTITLE3=Dave Prior - Barbed Wire Fences
TTITLE4=Stacey Morris - So Far Away
TTITLE5=Carter and Carter - God Didn't Make Mistakes
TTITLE6=Frinds In No Place- Don't Ring This Ringer
TTITLE7=Connie Kis Andersen - I'll Get back About That
TTITLE8=Darren Colston - The Boundary Rider
TTITLE9=The Atherton Brothers - Caribbean Daydreams
TTITLE10=Jetty Road - Tun To You
TTITLE11=Shane Howard - Talk of the Town
TTITLE12=The Woodpickers - Me And Ned Kelly
TTITLE13=Carla Herrod - Boy for The Weekend
TTITLE14=Paul Hicks - A Little Better Than That
TTITLE15=Ashley Cook - Cattle Dust and Leather
TTITLE16=Nicki Gillis - Jealousy
TTITLE17=Brad Lee - Roaring Through The Night
TTITLE18=Ann-Marita - Face I The Crowed
TTITLE19=Steve Graham - Blue Sky
EXTD=YEAR: 2006
EXTT0=
EXTT1=
EXTT2=
EXTT3=
EXTT4=
EXTT5=
EXTT6=
EXTT7=
EXTT8=
EXTT9=
EXTT10=
EXTT11=
EXTT12=
EXTT13=
EXTT14=
EXTT15=
EXTT16=
EXTT17=
EXTT18=
EXTT19=
PLAYORDER=
